<?xml version="1.0" encoding="utf-8"?>
<!-- Generator: Adobe Illustrator 17.0.0, SVG Export Plug-In . SVG Version: 6.00 Build 0)  -->
<!DOCTYPE svg PUBLIC "-//W3C//DTD SVG 1.1//EN" "http://www.w3.org/Graphics/SVG/1.1/DTD/svg11.dtd">
<svg version="1.1" id="Layer_1" xmlns="http://www.w3.org/2000/svg" xmlns:xlink="http://www.w3.org/1999/xlink" x="0px" y="0px"
	 width="500px" height="500px" viewBox="0 0 500 500" enable-background="new 0 0 500 500" xml:space="preserve">
<g>
	<path fill="#E0E0E0" d="M252.944,483.921c-9.429-14.891-18.094-27.86-26.046-41.254c-37.317-62.851-74.737-125.644-111.506-188.815
		c-18.728-32.176-26.981-65.87-20.177-104.259c10.789-60.875,43.924-103.151,100.26-124.506
		c48.93-18.547,97.73-12.622,142.152,17.169c31.363,21.033,52.631,50.451,62.882,86.111c12.903,44.886,6.908,88.378-17.18,129.219
		c-28.164,47.752-55.521,95.98-83.185,144.026C285.009,427.895,269.965,454.23,252.944,483.921z M249.445,53.217
		c-66.533-3.103-120.143,56.131-118.887,119.559c1.303,65.804,53.585,118.559,118.164,118.814
		c68.303,0.269,120.07-56.702,120.689-119.172C370.028,110.302,316.312,49.968,249.445,53.217z"/>
	<path fill="#E0E0E0" d="M249.594,108.008c38.951-2.576,65.868,30.828,65.15,63.968c-0.792,36.592-23.943,61.505-64.294,63.832
		c-35.191,2.029-67.66-29.588-66.056-63.663C186.075,136.418,211.883,105.924,249.594,108.008z"/>
</g>
</svg>
