<?xml version="1.0" encoding="utf-8"?>
<!-- Generator: Adobe Illustrator 17.0.0, SVG Export Plug-In . SVG Version: 6.00 Build 0)  -->
<!DOCTYPE svg PUBLIC "-//W3C//DTD SVG 1.1//EN" "http://www.w3.org/Graphics/SVG/1.1/DTD/svg11.dtd">
<svg version="1.1" id="Layer_1" xmlns="http://www.w3.org/2000/svg" xmlns:xlink="http://www.w3.org/1999/xlink" x="0px" y="0px"
	 width="500px" height="500px" viewBox="0 0 500 500" enable-background="new 0 0 500 500" xml:space="preserve">
<rect x="720.8" y="187.17" transform="matrix(0.8846 -0.4664 0.4664 0.8846 -100.4651 462.4675)" fill="none" width="326.667" height="494.086"/>
<path fill="#E0E0E0" d="M430.902,397.46c-0.332-2.636,0.883-5.241,3.086-6.726c29.933-20.178,48.665-48.987,48.665-80.973
	c0-39.182-28.128-73.574-70.503-93.195c-5.196,38.152-27.545,73.076-64.264,99.721c-39.57,28.714-91.726,44.528-146.861,44.528
	c-1.926,0-3.839-0.065-5.757-0.103c25.387,35.376,76.343,59.549,135.11,59.549c11.903,0,23.486-0.991,34.603-2.865
	c2.132-0.36,4.316,0.211,5.937,1.642c19.782,17.457,50.908,31.454,88.018,38.869c3.573,0.714,5.841-3.741,3.13-6.175
	C444.607,436.061,433.416,417.387,430.902,397.46"/>
<path fill="#E0E0E0" d="M386.049,199.256c0-74.144-82.831-134.257-185.024-134.257C98.844,64.999,16,125.112,16,199.256
	c0,44.79,30.228,84.452,76.677,108.842c1.862,0.975,3.229,2.698,3.71,4.736c0.595,2.596,1.064,5.243,1.355,7.927
	c2.647,24.352-7.99,48.146-27.897,68.117c-2.57,2.558-0.114,6.902,3.407,6.003c46.475-11.98,82.767-33.989,98.305-59.075
	c1.393-2.267,3.976-3.533,6.623-3.306c7.484,0.671,15.107,1.025,22.845,1.025C303.218,333.526,386.049,273.414,386.049,199.256
	 M201.025,123.579c19.245,0,34.845,15.601,34.845,34.845s-15.601,34.846-34.845,34.846s-34.846-15.601-34.846-34.846
	S181.78,123.579,201.025,123.579 M138.417,265.938c-1.209,0-2.19-0.981-2.19-2.19v-35.434c0-12.954,10.501-23.454,23.454-23.454
	h82.686c12.954,0,23.455,10.501,23.455,23.454v35.434c0,1.209-0.98,2.19-2.191,2.19H138.417z"/>
<rect x="556" y="25" fill="none" width="530.65" height="446.878"/>
</svg>
