<?xml version="1.0" encoding="utf-8"?>
<!-- Generator: Adobe Illustrator 24.0.1, SVG Export Plug-In . SVG Version: 6.00 Build 0)  -->
<svg version="1.1" id="Layer_1" xmlns="http://www.w3.org/2000/svg" xmlns:xlink="http://www.w3.org/1999/xlink" x="0px" y="0px"
	 viewBox="0 0 512 512" enable-background="new 0 0 512 512" xml:space="preserve">
<g>
	<path fill="#DFDFDF" d="M471.473,101.567c-0.854-17.088-14.098-18.797-14.098-18.797L263.426,12.709
		c-10.253-3.845-15.806,0-15.806,0L55.379,82.77c-14.129,5.149-14.952,17.515-14.952,17.515C4.542,492.456,258.727,501,258.727,501
		C520.072,460.843,471.473,101.567,471.473,101.567z M349.76,344.165c0,6.81-5.572,12.381-12.381,12.381H176.055
		c-6.81,0-12.381-5.572-12.381-12.381V230.547c0-6.81,5.572-12.381,12.381-12.381h16.751V170.4
		c0-24.402,19.965-44.367,44.367-44.367h36.902c24.402,0,44.367,19.965,44.367,44.367v47.766h18.936
		c6.81,0,12.381,5.572,12.381,12.381V344.165z"/>
	<path fill="#DFDFDF" d="M255.442,248.027c-10.861,0-19.665,8.804-19.665,19.665c0,6.97,3.636,13.077,9.104,16.57v32.228
		c0,5.808,4.752,10.561,10.561,10.561c5.808,0,10.561-4.752,10.561-10.561v-32.228c5.468-3.493,9.104-9.6,9.104-16.57
		C275.107,256.831,266.303,248.027,255.442,248.027z"/>
	<path fill="#DFDFDF" d="M271.526,155.894h-31.803c-9.08,0-16.509,7.429-16.509,16.509v38.54c0,2.59,0.621,5.036,1.696,7.223h61.429
		c1.075-2.187,1.696-4.633,1.696-7.223v-38.54C288.035,163.323,280.606,155.894,271.526,155.894z"/>
</g>
</svg>
