<?xml version="1.0" encoding="utf-8"?>
<!-- Generator: Adobe Illustrator 17.0.0, SVG Export Plug-In . SVG Version: 6.00 Build 0)  -->
<!DOCTYPE svg PUBLIC "-//W3C//DTD SVG 1.1//EN" "http://www.w3.org/Graphics/SVG/1.1/DTD/svg11.dtd">
<svg version="1.1" id="Layer_1" xmlns="http://www.w3.org/2000/svg" xmlns:xlink="http://www.w3.org/1999/xlink" x="0px" y="0px"
	 width="500px" height="500px" viewBox="0 0 500 500" enable-background="new 0 0 500 500" xml:space="preserve">
<polygon fill="none" points="64.216,245.236 240.469,437.512 420.363,350.114 239.012,163.665 "/>
<polygon fill="none" points="64.216,245.236 240.469,437.512 420.363,350.113 239.012,163.664 "/>
<path fill="#E0E0E0" d="M426.19,341.374L250.665,160.751c0,0-19.665-17.48-45.884-3.642L54.019,222.658
	c0,0-24.034,12.381-5.098,29.133L233.914,451.35c0,0,10.196,18.208,36.416,3.642l167.513-83.028
	C437.843,371.963,453.069,364.942,426.19,341.374z M346.403,411.282c-6.17,2.921-12.569,2.339-14.292-1.301s1.882-8.959,8.052-11.88
	c6.17-2.921,12.569-2.339,14.292,1.301S352.573,408.361,346.403,411.282z M240.469,437.512L64.216,245.236l174.796-81.572
	l181.351,186.449L240.469,437.512z"/>
<g>
	<g>
		<path fill="none" stroke="#E0E0E0" stroke-width="3" stroke-miterlimit="10" d="M244.839,270.485c0,0-2.117-0.957-5.596-2.149"/>
		<path fill="none" stroke="#E0E0E0" stroke-width="3" stroke-miterlimit="10" stroke-dasharray="11.7099,11.7099" d="
			M227.956,265.243c-15.935-3.269-38.567-3.087-46.723,20.779c0,0-5.341,32.046,42.728,23.792c0,0,27.191,1.457,85.456-20.878
			c0,0,61.179,1.942,47.583,46.127c0,0,6.193,31.852-72.631,30.948"/>
		<path fill="none" stroke="#E0E0E0" stroke-width="3" stroke-miterlimit="10" d="M278.51,365.887
			c-1.95-0.059-3.948-0.138-5.996-0.236"/>
	</g>
</g>
<line fill="none" stroke="#E0E0E0" stroke-width="3" stroke-miterlimit="10" x1="271.786" y1="344.287" x2="237.555" y2="390.171"/>
<line fill="none" stroke="#E0E0E0" stroke-width="3" stroke-miterlimit="10" x1="231" y1="346.472" x2="275.428" y2="385.801"/>
<path fill="#E0E0E0" d="M281.241,24.11c-36.717-18.829-83.788-0.003-83.796,0c-16.335,6.534-32.257,20.725-40.663,36.032
	c-12.721,23.166-17.987,52.623-10.884,78.168c7.001,25.181,21.599,48.532,36.119,70.002c9.425,13.937,19.377,27.661,29.903,40.79
	c4.677,5.833,19.3,25.916,28.835,17.921c93.211-78.147,96.036-143.112,96.036-143.112C341.498,46.707,281.241,24.11,281.241,24.11z
	 M237.182,143.094c-17.296,0-31.318-14.021-31.318-31.318s14.021-31.318,31.318-31.318c17.296,0,31.318,14.021,31.318,31.318
	S254.478,143.094,237.182,143.094z M321.979,141.152C303.837,21.285,221.924,48.59,221.924,48.59
	c-67.79,24.48-64.129,92.563-64.129,92.563c-16.111-59.023,36.416-93.225,36.416-93.225c42.901-31.732,88.913-3.104,88.913-3.104
	C339.615,74.952,321.979,141.152,321.979,141.152z"/>
<path fill="#E0E0E0" d="M46.33,260.433l188.305,204.782c0,0,8.474,15.535,35.778,2.354l170.416-88.503c0,0,9.415,2.825-0.471,11.769
	l-169.945,88.503c0,0-13.652,11.298-39.544-1.412L49.625,278.793C49.625,278.793,41.151,272.202,46.33,260.433z"/>
</svg>
